<?xml version="1.0" encoding="UTF-8"?>
<svg id="Capa_2" data-name="Capa 2" xmlns="http://www.w3.org/2000/svg" viewBox="0 0 389.67 400.55">
  <defs>
    <style>
      .cls-1 {
        fill: #f5f5f5;
      }

      .cls-2 {
        fill: #1d1d1b;
      }
    </style>
  </defs>
  <g id="Capa_1-2" data-name="Capa 1">
    <g>
      <path class="cls-2" d="m167.74,397.99L27.72,306.49c-2.84-1.92-4.65-4.65-5.01-7.57L.06,116.19c-1.02-8.26,10.41-13.14,19.5-8.37l162.49,85.32c3.94,2.07,6.38,5.61,6.39,9.26l.11,187.73c0,9-12.23,13.64-20.82,7.85Z"/>
      <g id="Texto_de_perspectiva" data-name="Texto de perspectiva">
        <path class="cls-1" d="m38.26,188.74c-.63-5.79-.77-10.67-.39-14.64.38-4,1.61-6.85,3.69-8.54,2.1-1.7,5.3-2.09,9.62-1.16,4.35.95,10.11,3.42,17.32,7.47l27.89,15.66c7.61,4.27,13.97,8.63,19.01,13.05,5.07,4.44,9.08,9.05,12,13.79,2.92,4.75,5,9.75,6.22,15,1.21,5.22,1.95,10.84,2.22,16.84l3.17,71.62c.25,5.61,0,10.17-.76,13.7-.75,3.5-2.33,5.77-4.75,6.81-2.39,1.03-5.83.7-10.3-.97-4.42-1.65-10.11-4.8-17.04-9.4l-39.01-25.94c-1.06-.7-1.74-1.85-1.87-3.11h0c-.35-3.54,3.56-5.91,6.54-3.96l26.53,17.43c3.96,2.6,7.07,4.38,9.33,5.34,2.27.96,3.91,1.04,4.94.23,1.03-.81,1.6-2.55,1.72-5.22.12-2.68.04-6.3-.24-10.86l-4.43-71.06c-.26-4.24-.65-7.99-1.17-11.25-.52-3.27-1.44-6.19-2.77-8.77-1.33-2.57-3.27-5.01-5.82-7.31-2.54-2.29-5.95-4.66-10.23-7.1l-12.66-7.23c-4.01-2.29-7.16-3.68-9.44-4.17-2.28-.49-3.93-.15-4.97,1-1.03,1.15-1.55,3.16-1.57,6.01-.02,2.84.18,6.35.57,10.52l1.86,19.67c.46,4.83.97,8.86,1.55,12.09.58,3.22,1.49,5.98,2.73,8.3,1.24,2.32,3.02,4.46,5.33,6.46,2.32,2,5.47,4.23,9.46,6.71l15.75,9.78c1.15.72,1.89,1.94,1.99,3.3l.09,1.27c.25,3.46-3.55,5.73-6.48,3.88l-17.4-10.95c-6.81-4.28-12.39-8.46-16.8-12.56-4.39-4.07-7.88-8.24-10.5-12.53-2.62-4.28-4.58-8.83-5.88-13.65-1.31-4.84-2.29-10.18-2.93-16.03l-2.14-19.49Z"/>
      </g>
      <path class="cls-2" d="m187.32,185.74L9.52,93.13c-10.01-5.21-9.18-19.79,1.35-23.84L188.67.87c3.03-1.17,6.38-1.17,9.41,0l177.8,68.42c10.53,4.05,11.35,18.63,1.35,23.84l-177.8,92.61c-3.79,1.98-8.31,1.98-12.1,0Z"/>
      <g id="Texto_de_perspectiva-2" data-name="Texto de perspectiva">
        <path class="cls-1" d="m191.54,129l-18.34-8.78c-1.96-.94-2.9-3.22-2.15-5.26l19.44-53.68c1.26-3.48-2.23-6.78-5.63-5.34l-75.74,32.04c-1.12.47-2.38.44-3.48-.08l-8.49-4.06c-3.31-1.58-3.18-6.34.22-7.74l94.39-38.86c1.03-.43,2.19-.43,3.22,0l24.84,10.22c2.09.86,3.14,3.21,2.38,5.34l-15.11,42.43c-1.26,3.54,2.37,6.84,5.77,5.26l62.15-28.84c1.07-.5,2.3-.52,3.39-.07l10.97,4.51c3.39,1.4,3.53,6.15.22,7.74l-94.39,45.17c-1.16.55-2.5.55-3.66,0Z"/>
      </g>
      <path class="cls-2" d="m208.7,193.29l161.6-85.77c9.04-4.8,20.36.01,19.3,8.25l-23.18,180.6c-.37,2.89-2.15,5.6-4.95,7.52l-139.6,92.99c-8.54,5.87-20.72,1.31-20.67-7.69l1.12-186.63c.02-3.63,2.46-7.17,6.38-9.25Z"/>
      <g id="Texto_de_perspectiva-3" data-name="Texto de perspectiva">
        <path class="cls-1" d="m346.95,258.04c-.58,5.21-1.49,10.04-2.74,14.49-1.24,4.43-3.12,8.67-5.64,12.74-2.52,4.07-5.89,8.11-10.13,12.15-4.26,4.06-9.67,8.26-16.24,12.62l-25.39,16.84c-6.92,4.59-12.59,7.71-17,9.35-4.45,1.65-7.88,2-10.27,1.01-2.41-.99-3.99-3.17-4.73-6.57-.75-3.42-1-7.8-.75-13.16l3.31-71.75c.29-6.3,1.05-12.14,2.27-17.51,1.24-5.4,3.32-10.52,6.24-15.34,2.93-4.82,6.94-9.45,12-13.89,5.04-4.4,11.38-8.74,18.98-13l38.26-21.4c2.99-1.67,6.62.71,6.28,4.12l-.27,2.72c-.14,1.36-.93,2.58-2.12,3.26l-35.49,20.2c-4.27,2.43-7.67,4.68-10.19,6.74-2.53,2.07-4.46,4.36-5.78,6.87-1.33,2.51-2.26,5.51-2.79,9.01-.54,3.49-.96,7.78-1.29,12.88l-4.56,71.18c-.24,3.81-.3,6.96-.17,9.47.13,2.5.7,4.19,1.72,5.07,1.01.88,2.64.94,4.9.17,2.24-.76,5.34-2.44,9.29-5.03l11.71-7.67c3.71-2.43,6.69-4.73,8.95-6.9,2.25-2.16,4.02-4.41,5.29-6.74,1.27-2.33,2.18-4.91,2.72-7.75.54-2.84.99-6.15,1.35-9.9l1.33-13.89c.44-4.63.67-8.35.67-11.16,0-2.82-.47-4.72-1.4-5.7-.93-.98-2.51-1.07-4.72-.28-2.22.8-5.33,2.42-9.34,4.87l-10.62,6.5c-2.94,1.8-6.69-.48-6.44-3.92l.13-1.74c.1-1.37.86-2.61,2.04-3.32l23.07-13.93c6.93-4.18,12.48-6.84,16.68-7.99,4.16-1.14,7.24-.96,9.27.53,2.01,1.48,3.19,4.11,3.56,7.9.36,3.75.23,8.45-.4,14.06l-1.53,13.78Z"/>
      </g>
    </g>
  </g>
</svg>