<?xml version="1.0" encoding="UTF-8"?>
<svg id="Capa_2" data-name="Capa 2" xmlns="http://www.w3.org/2000/svg" viewBox="0 0 107.11 132.28">
  <defs>
    <style>
      .cls-1, .cls-2 {
        fill: #fff;
      }

      .cls-2, .cls-3, .cls-4, .cls-5, .cls-6, .cls-7 {
        fill-rule: evenodd;
      }

      .cls-3 {
        fill: #ffffff;
      }

      .cls-4 {
        fill: #aa4430;
      }

      .cls-5 {
        fill: #dadada;
      }

      .cls-6, .cls-8 {
        fill: #d0d0d0;
      }
    </style>
  </defs>
  <g id="Layer_1" data-name="Layer 1">
    <g>
      <path class="cls-2" d="m2.96,19.93h7.37l6.54-9.91c.28-.57.76-1.02,1.34-1.28C29.98,2.56,41.78-.17,53.59,0c11.84.18,23.63,3.29,35.37,8.76.48.22.87.57,1.13.99l6.86,10.17h7.43c1.51,0,2.73,1.22,2.73,2.73v57.77c0,69.16-107.11,69.16-107.11,0V22.64c0-1.59,1.35-2.85,2.96-2.72Z"/>
      <g>
        <path class="cls-7" d="m2.73,22.64h101.66v57.77c0,65.55-101.66,65.56-101.66,0V22.64Z"/>
        <path class="cls-2" d="m19.31,11.23h68.5s7.7,11.41,7.7,11.41v53.02c0,66.3-83.73,66.3-83.73,0V22.64l7.52-11.4Z"/>
        <path class="cls-3" d="m19.3,11.23C42.14-.83,64.97.59,87.81,11.23v64.16c0,61.84-68.51,61.85-68.51,0V11.23Z"/>
        <path class="cls-2" d="m28.22,58.86h10.18v58.61c-3.79-2.29-7.26-5.51-10.18-9.64v-48.97h0Zm50.67,48.97c-2.92,4.13-6.39,7.34-10.18,9.64v-58.61h10.18v48.97h0Zm-20.25,13.48c-3.37.61-6.81.61-10.18,0v-62.45h10.18v62.45Z"/>
      </g>
      <g>
        <circle class="cls-8" cx="51.79" cy="65.02" r="38.33" transform="translate(-16.78 112.01) rotate(-85.88)"/>
        <path class="cls-4" d="m87.65,41.66v25.95c0,3.39-.22,6.59-.61,9.61-6.51,11.9-19.13,19.97-33.65,19.97s-27.14-8.07-33.65-19.97c-.39-3.02-.61-6.22-.61-9.61v-25.95c6.3-12.53,19.28-21.12,34.25-21.12s27.95,8.6,34.25,21.13Z"/>
        <path class="cls-6" d="m26.45,57.24h10.18v42.99c-3.74-1.61-7.17-3.8-10.18-6.46v-36.54h0Zm50.67,36.53c-3.01,2.66-6.44,4.85-10.18,6.46v-42.99h10.18v36.53h0Zm-20.25,9.24c-1.67.22-3.36.34-5.09.34s-3.42-.12-5.09-.34v-45.77h10.18v45.77Z"/>
      </g>
      <g>
        <circle class="cls-1" cx="53.56" cy="58.86" r="37.64" transform="translate(-21.42 85.55) rotate(-67.29)"/>
        <path class="cls-5" d="m76.45,28.98c8.96,6.88,14.75,17.7,14.75,29.88,0,20.79-16.86,37.64-37.64,37.64-12.71,0-23.94-6.3-30.76-15.95,6.34,4.87,14.28,7.77,22.89,7.77,20.79,0,37.64-16.86,37.64-37.64,0-8.08-2.55-15.56-6.88-21.69Z"/>
        <path class="cls-7" d="m86.02,38.4c-2.56-4.06-5.86-7.6-9.71-10.44-1.3-.96-2.65-1.83-4.07-2.62-3.89-2.17-8.19-3.69-12.77-4.4-1.93-.3-3.91-.46-5.93-.46-1.36,0-2.69.07-4.01.21-2.16.22-4.26.63-6.29,1.19-.55.15-1.1.32-1.64.5-4.99,1.63-9.53,4.26-13.38,7.65-3.21,2.82-5.94,6.16-8.06,9.9-3.17,5.59-4.99,12.04-4.99,18.93s1.82,13.34,4.99,18.93c2.12,3.74,4.85,7.08,8.06,9.9,3.85,3.39,8.39,6.02,13.38,7.65.54.18,1.09.34,1.64.5,2.04.57,4.14.97,6.29,1.19,1.32.14,2.66.21,4.01.21,2.02,0,4-.16,5.93-.46,4.57-.71,8.88-2.23,12.77-4.4,1.41-.79,2.77-1.67,4.07-2.62,3.85-2.84,7.15-6.38,9.71-10.44,3.74-5.92,5.91-12.94,5.91-20.46s-2.17-14.53-5.91-20.46Zm-13.78-10.48c1.42.86,2.78,1.82,4.07,2.86.97.79,1.91,1.63,2.8,2.52.8.8,1.56,1.64,2.28,2.51-.11-.04-.23-.07-.34-.09-1.53-1.81-3.1-3.36-4.74-4.66-.56-.44-1.12-.86-1.7-1.24-.77-.52-1.56-.99-2.37-1.42-1.66-.87-3.39-1.56-5.23-2.06-.59-.68-1.29-1.27-2.09-1.79,2.58.86,5.04,2,7.32,3.38Zm-12.77.75c1.62-1.02,4.34-1.81,6.89-1.9,2.08.54,4.03,1.29,5.87,2.3.69.38,1.37.79,2.04,1.24.69.46,1.36.97,2.03,1.51,1.89,1.55,3.7,3.44,5.46,5.72,1.45,2.86,1.89,6.44,1.1,8.87-2.16.6-4.35,1.17-6.56,1.72-1.13.28-2.27.56-3.42.84-.21-.23-.43-.46-.65-.68-3.14-3.19-7.06-5.72-11.18-7.23-.2-2.2-.52-4.44-.99-6.55-.18-.78-.37-1.54-.59-2.28-.29-.97-.62-1.9-.99-2.75.25-.28.59-.55.99-.8Zm-9.94-1.62c3.19.31,6.11,1.1,8.34,2.5.66,1.47,1.19,3.18,1.6,5.01l.02.07c.46,2.06.78,4.27.98,6.44-.33.16-.66.33-.99.51-3.59,1.95-7.46,5.01-9.94,7.58-.12.13-.24.25-.36.38-1.96-.57-3.94-1.04-5.94-1.43-.41-.08-.82-.16-1.23-.23l-.41-.07c-2.26-.38-4.56-.67-6.87-.86-1.46-3.37-2.01-6.84-2.06-10.56,1.44-2,3.2-3.82,5.22-5.4,1.15-.9,2.39-1.72,3.71-2.45.53-.29,1.08-.58,1.64-.84.59-.28,1.19-.54,1.8-.78,1.53-.05,3.04,0,4.49.13Zm4.27,36.78c-1.25,2.1-2.66,4.17-4.17,6.2l-.1.14c-1.5,2.01-3.1,3.99-4.76,5.94-.52.01-1.03.02-1.54,0-.55-.01-1.1-.03-1.64-.07-3.79-.26-7.35-1.15-10.75-2.58-1.04-1.82-1.91-3.68-2.64-5.59-.21-.54-.4-1.08-.58-1.63-.77-2.33-1.33-4.72-1.7-7.18.66-1.66,1.43-3.18,2.28-4.57,1.82-2.96,4.01-5.28,6.37-6.97,2.36.2,4.7.48,7.02.88l.31.05c.45.08.89.16,1.33.25,1.87.37,3.73.8,5.56,1.33.24.73.49,1.47.74,2.2,1.32,3.86,2.75,7.73,4.27,11.59Zm-25.82-30.52l.23-.22c3.75-3.69,8.31-6.56,13.38-8.34.54-.19,1.09-.37,1.64-.53.63-.19,1.27-.36,1.91-.51-.77.74-.92,1.82-.98,2.94-.31.13-.62.27-.93.41-.56.26-1.1.53-1.64.82-1.45.78-2.81,1.67-4.07,2.66-2.07,1.62-3.87,3.49-5.35,5.54-1.4.27-2.74.65-3.96,1.15-1.95.79-3.63,1.88-4.89,3.3-.05-.29-.08-.59-.11-.89-.01-.13-.02-.26-.03-.39,1.39-2.14,3-4.13,4.8-5.93Zm-7.83,11.69c.71-1.71,1.55-3.36,2.51-4.93.04.36.1.71.17,1.05l-.14.19c-1.03,1.44-1.91,3.25-2.54,5.19-.84,2.55-1.26,5.34-1.08,7.85-.59.61-1.12,1.34-1.61,2.16.26-4.05,1.19-7.92,2.68-11.5Zm5.58,36.78c-.08-.04-.16-.08-.24-.12-2.19-2.69-3.99-5.69-5.34-8.93-1.78-4.27-2.76-8.95-2.76-13.86,0-.34,0-.67.02-1,.15-.3.3-.59.46-.88h0c.42-.74.89-1.41,1.39-1.97.28.31.58.61.89.89,1.48,1.34,3.25,2.29,5.15,2.97.37,2.59.95,5.11,1.77,7.56.34,1.02.72,2.03,1.14,3.02.66,1.56,1.42,3.08,2.28,4.57-1.07,2.78-1.79,5.63-1.64,8.61-.21-.02-.42-.04-.64-.07-.84-.14-1.68-.41-2.48-.79Zm15.86,11.21c-5.07-1.78-9.63-4.65-13.38-8.34l-.23-.23c-.56-.56-1.11-1.14-1.63-1.74.61.23,1.23.39,1.86.48.26.04.52.06.78.08,1.41,2.98,7.74,7.33,11.93,8.08.14.6.37,1.14.67,1.61l.04.07-.04-.02Zm27.35-1.42c-2.96,1.4-6.14,2.41-9.48,2.96-1.93.32-3.91.48-5.93.48-1.36,0-2.7-.07-4.01-.22-2.16-.24-4.26-.67-6.29-1.27-.18-.05-.36-.11-.53-.16l-.04-.03c-.5-.48-.85-1.08-1.07-1.78-.02-.05-.03-.1-.04-.15h.04c.56-.03,1.11-.09,1.64-.17,2.37-.38,4.45-1.31,6.29-2.68.42-.31.83-.65,1.23-1,1.74.71,4.19,1.03,6.85,1,.61,0,1.23-.03,1.86-.07,2.32-.15,4.72-.56,6.86-1.18.93,1.23,1.98,2.31,3.32,3.02-.18.44-.42.86-.7,1.26Zm3.29-1.77c-.75.46-1.53.89-2.31,1.29.13-.24.24-.49.34-.75.65-.15,1.31-.34,1.98-.6.09-.03.18-.07.27-.11l-.27.16Zm0-8.78c-1.56,2.31-3.38,4.26-5.06,5.38-2.33.79-5.06,1.29-7.71,1.47-.63.04-1.25.07-1.87.07-2.66.02-5.09-.3-6.75-1.01-.45-.57-.9-1.15-1.32-1.76-1.83-2.58-3.38-5.46-4.27-8.72,1.48-1.75,2.92-3.52,4.27-5.3.19-.25.39-.51.58-.76,1.48-1.99,2.85-4,4.09-6.06,1.74.14,3.51.22,5.28.23,3.11.02,6.23-.13,9.28-.43,1.28,1.52,2.44,3.17,3.48,4.96.1.16.19.33.28.5.99,1.79,1.86,3.72,2.59,5.83-.69,1.95-1.71,3.88-2.87,5.6Zm4.07-5.65c-.2,0-.39.01-.58,0-.75-2.2-1.65-4.21-2.68-6.07-.26-.46-.53-.92-.8-1.36-.88-1.43-1.84-2.76-2.87-4,1.26-2.75,2.22-5.47,2.87-8.28.46-1.99.77-4.03.92-6.15,1.05-.26,2.1-.51,3.15-.77,2.23-.55,4.44-1.12,6.62-1.73,1,.69,2.1,2.01,3.09,3.75.91,1.61,1.72,3.58,2.24,5.75.2,3.28-.09,6.35-.86,9.22-.36,1.33-.82,2.61-1.38,3.86-.53,1.17-1.15,2.31-1.86,3.4-2.56,1.48-5.35,2.29-7.85,2.39Zm7.41,3.4c.79-1.89,1.11-3.72.94-5.47.5-.77.95-1.55,1.36-2.35.83-1.62,1.48-3.3,1.95-5.06.71-2.67,1.03-5.51.92-8.51.22-.24.5-.61.71-1.1.06.86.09,1.73.09,2.6,0,5.7-1.32,11.09-3.68,15.89-.68,1.39-1.45,2.73-2.3,4.01Z"/>
      </g>
      <g>
        <polygon class="cls-2" points="53.56 6.15 55.26 10.08 59.52 10.49 56.32 13.32 57.25 17.5 53.56 15.33 49.87 17.5 50.79 13.32 47.59 10.49 51.85 10.08 53.56 6.15"/>
        <polygon class="cls-2" points="38.38 9.97 40.22 12.79 43.58 12.55 41.46 15.17 42.73 18.29 39.58 17.09 37.01 19.26 37.18 15.89 34.31 14.11 37.57 13.24 38.38 9.97"/>
        <polygon class="cls-2" points="68.74 9.97 66.89 12.79 63.53 12.55 65.65 15.17 64.38 18.29 67.53 17.09 70.11 19.26 69.93 15.89 72.8 14.11 69.54 13.24 68.74 9.97"/>
      </g>
    </g>
  </g>
</svg>